<?xml version="1.0" encoding="UTF-8" standalone="no"?>
<!-- Created with Inkscape (http://www.inkscape.org/) -->

<svg version="1.1" id="svg2" xml:space="preserve" width="1033.5867" height="710.08002" viewBox="0 0 1033.5867 710.08002" sodipodi:docname="Chinese-Logo.eps" xmlns:inkscape="http://www.inkscape.org/namespaces/inkscape" xmlns:sodipodi="http://sodipodi.sourceforge.net/DTD/sodipodi-0.dtd" xmlns="http://www.w3.org/2000/svg" xmlns:svg="http://www.w3.org/2000/svg">
  <defs id="defs6" />
  <sodipodi:namedview id="namedview4" pagecolor="#ffffff" bordercolor="#666666" borderopacity="1.0" inkscape:pageshadow="2" inkscape:pageopacity="0.0" inkscape:pagecheckerboard="0" />
  <g id="g8" inkscape:groupmode="layer" inkscape:label="ink_ext_XXXXXX" transform="matrix(1.3333333,0,0,-1.3333333,0,710.08)">
    <g id="g10" transform="scale(0.1)">
      <g id="g12" transform="scale(10)"></g>
      <path d="m 3177.73,3436.93 c 0,96.82 56.81,167.83 152.33,167.83 95.53,0 151.04,-71.01 151.04,-167.83 0,-96.81 -55.51,-167.81 -151.04,-167.81 -95.52,0 -152.33,71 -152.33,167.81 z m -686.77,51.64 c 3.87,67.13 49.05,126.51 131.67,126.51 69.71,0 125.23,-54.22 125.23,-126.51 z m 4923.61,3.88 h -214.3 v 134.25 h 214.3 z m -578.34,0 v 134.25 h 214.29 v -134.25 z m -605.44,-29.7 v 214.3 h -149.75 v -293.04 c 0,-135.55 -78.75,-197.52 -210.43,-197.52 h -58.09 v -136.83 h 38.73 c 175.57,0 273.68,58.09 325.32,147.16 l 246.56,-158.78 81.33,122.63 -278.84,175.57 c 3.88,27.11 5.17,55.51 5.17,126.51 z M 721.094,3742.89 V 3128.4 H 909.57 v 614.49 z M 4225.97,3128.4 H 4037.5 v 614.49 h 188.47 z m 118.76,0 v 614.49 h 182.02 v -86.5 h 2.59 c 34.85,50.35 103.27,99.41 196.22,99.41 143.29,0 213,-98.12 213,-225.92 V 3128.4 h -188.48 v 338.23 c 0,61.96 -21.94,121.34 -101.98,121.34 -81.33,0 -114.89,-58.09 -114.89,-129.09 V 3128.4 Z m -3334.47,0 h 188.48 v 330.48 c 0,71 33.56,129.09 114.89,129.09 80.04,0 101.99,-59.38 101.99,-121.34 V 3128.4 h 188.47 v 401.48 c 0,127.8 -69.71,225.92 -213,225.92 -92.95,0 -161.37,-49.06 -196.23,-99.41 h -2.57 v 86.5 h -182.03 z m 1767.28,202.68 c -32.27,-43.89 -77.45,-65.84 -142,-65.84 -72.29,0 -134.25,41.31 -144.58,112.31 h 438.92 v 58.09 c 0,197.51 -120.06,326.61 -307.25,326.61 -188.47,0 -322.73,-142 -322.73,-331.77 0,-196.22 142,-317.57 330.48,-317.57 113.6,0 211.71,43.89 272.38,122.64 z m 2974.31,-220.75 -107.15,108.44 c 96.82,104.56 170.4,240.11 170.4,400.18 v 28.41 h -157.49 l -29.69,166.53 h -147.16 l 29.68,-166.53 h -211.7 V 3513.1 h 356.28 c -16.77,-61.96 -55.5,-132.97 -108.43,-193.64 l -108.44,109.73 -99.4,-100.69 313.7,-318.86 z m 1373.55,169.11 c 69.71,-130.38 229.78,-224.62 473.77,-229.78 h 82.62 v 136.83 h -58.09 c -191.06,0 -317.57,56.81 -387.28,171.7 h 494.42 v 134.26 h -166.53 v 268.51 h -364.04 v 95.53 h -149.75 v -95.53 h -364.04 v -268.51 h -166.52 v -134.26 h 494.42 c -69.71,-114.89 -196.22,-171.7 -387.29,-171.7 h -58.08 v -136.83 h 82.62 c 243.98,5.16 404.06,99.4 473.77,229.78 z m -3646.88,-56.8 v -94.24 h 175.57 v 903.66 H 3465.61 V 3669.3 c -32.27,52.93 -91.65,91.66 -179.44,91.66 -178.15,0 -299.5,-139.42 -299.5,-324.03 0,-184.6 121.35,-324.02 299.5,-324.02 101.98,0 165.24,51.64 192.35,109.73 z M 61.4297,3128.4 H 626.855 v 182.02 H 258.941 v 721.64 H 61.4297 Z m 1640.7703,0 h 188.48 v 300.79 h 2.58 l 223.33,-300.79 h 223.33 l -251.73,338.23 234.95,276.26 h -214.3 l -218.16,-263.35 v 552.52 H 1702.2 Z m 2429.53,698.4 c -60.67,0 -109.72,50.34 -109.72,109.72 0,61.97 49.05,111.02 109.72,111.02 60.68,0 109.73,-49.05 109.73,-111.02 0,-59.38 -49.05,-109.72 -109.73,-109.72 z m -3316.398,0 c 61.965,0 112.309,50.34 112.309,109.72 0,63.26 -50.344,111.02 -112.309,111.02 -60.676,0 -111.019,-47.76 -111.019,-111.02 0,-59.38 50.343,-109.72 111.019,-109.72 z m 5485.158,-85.2 v -383.41 h 149.75 v 517.66 h -219.45 v 108.44 h 234.95 v 134.25 h -619.65 v -134.25 h 234.95 v -108.44 h -219.46 v -517.66 h 149.74 v 383.41 z m 969.5,179.43 v -95.53 h 149.74 v 95.53 h 250.44 v 134.26 h -250.44 v 95.53 h -149.74 v -95.53 h -289.17 v 95.53 h -149.75 v -95.53 h -250.44 v -134.26 h 250.44 v -95.53 h 149.75 v 95.53 z m -1705.33,94.24 149.75,-238.82 123.93,77.46 -188.47,296.91 h -169.11 l -246.58,-362.75 120.06,-87.79 z M 3846.44,3031.58 c 0,-49.05 41.3,-91.65 92.94,-91.65 h 1094.71 c 54.23,0 95.53,42.6 95.53,91.65 v 1098.59 c 0,49.05 -41.3,91.65 -92.95,91.65 h -1094.7 c -54.23,0 -95.53,-42.6 -95.53,-91.65 V 3031.58" style="fill:#3666ba;fill-opacity:1;fill-rule:nonzero;stroke:none" id="path22" />
    </g>
  </g>
</svg>