<svg width="100" height="100" viewBox="0 0 100 100" fill="none" xmlns="http://www.w3.org/2000/svg">
  <path d="M100 0H0V100H100V0Z" fill="#13AB67" />
  <path d="M66.4785 64.7666C62.5728 68.6624 57.2816 70.8503 51.7651 70.8503C46.2486 70.8503 40.9573 68.6624 37.0517 64.7666C28.9394 56.6514 28.9384 43.4512 37.0517 35.3398C38.9834 33.407 41.277 31.8736 43.8015 30.8275C46.326 29.7814 49.0319 29.2429 51.7646 29.2429C54.4973 29.2429 57.2032 29.7814 59.7277 30.8275C62.2522 31.8736 64.5458 33.407 66.4775 35.3398L66.7119 35.5742L76.2128 26.0742L75.9785 25.8389C71.1897 21.0503 65.0885 17.7894 58.4464 16.4683C51.8043 15.1473 44.9196 15.8255 38.663 18.4172C32.4063 21.0089 27.0587 25.3977 23.2963 31.0286C19.5339 36.6595 17.5258 43.2796 17.5258 50.0518C17.5258 56.8239 19.5339 63.4441 23.2963 69.075C27.0587 74.7058 32.4063 79.0946 38.663 81.6863C44.9196 84.278 51.8043 84.9562 58.4464 83.6352C65.0885 82.3141 71.1897 79.0532 75.9785 74.2646L76.2128 74.0293L66.7148 64.5293L66.4785 64.7666Z" fill="white" />
</svg>