<svg width="100" height="100" viewBox="0 0 100 100" fill="none" xmlns="http://www.w3.org/2000/svg">
  <path d="M100 0H0V100H100V0Z" fill="#13AB67" />
  <path d="M52.5391 87.2363C52.5391 88.5342 51.3164 89.1738 50.3818 89.1738C49.3076 89.1738 48.2422 88.5078 48.2422 87.2363V80.1758H44.8242V86.9414C44.8242 88.3994 45.3701 89.6328 46.5107 90.6074C47.5146 91.4658 48.8418 91.9385 50.3018 91.9385C51.7617 91.9385 53.1826 91.4658 54.1865 90.6074C55.3271 89.6309 55.957 88.3994 55.957 86.9414V80.1758H52.5391V87.2363Z" fill="white" />
  <path d="M41.6992 85.2451C40.9492 84.9336 39.9805 84.6738 38.6846 84.418C37.1475 84.1143 36.8613 83.9043 36.8701 83.4922C36.875 83.2813 37.0996 83.0391 37.4297 82.8818C37.8694 82.6932 38.3462 82.6067 38.8242 82.6289C39.9609 82.6553 40.79 83.0391 41.5879 83.5635C41.6113 83.5791 43.4375 81.3828 43.4375 81.3828C42.4551 80.6611 40.9238 79.959 39.2168 79.918C37.543 79.8799 36.46 80.1299 35.5742 80.6162C34.5078 81.2022 33.8008 82.0527 33.5586 82.96C33.3633 83.6963 33.5762 84.7969 34.2764 85.3662C35.2295 86.1475 36.085 86.4942 38.4346 86.8311C40.1924 87.084 40.4463 87.6035 40.4355 88.1133C40.4189 88.8428 39.3613 89.2002 38.4346 89.127C37.2573 89.0188 36.1628 88.4752 35.3652 87.6026L33.1055 89.4766C34.0526 90.5223 35.2842 91.2689 36.6494 91.625C37.2926 91.7916 37.9529 91.8834 38.6172 91.8985C39.2405 91.9152 39.8635 91.8565 40.4727 91.7237C42.209 91.333 43.4101 90.3701 43.7676 89.0684C44.0146 88.169 43.8857 87.1924 43.4023 86.4942C43.0244 85.9453 42.5098 85.5801 41.6992 85.2451Z" fill="white" />
  <path d="M45.5557 61.5605L43.6748 59.1367L38.7695 62.9434V54.0039H35.6445V70.8008H38.7695V66.5371L43.5674 70.8652L45.8086 68.7275L41.2529 64.7793L45.5557 61.5605Z" fill="white" />
  <path d="M19.4278 65.958C18.7019 66.684 17.7771 67.1784 16.7702 67.3788C15.7633 67.5791 14.7197 67.4763 13.7712 67.0835C12.8227 66.6907 12.0121 66.0254 11.4417 65.1718C10.8713 64.3183 10.5669 63.3147 10.5669 62.2881C10.5669 61.2615 10.8713 60.258 11.4417 59.4044C12.0121 58.5508 12.8227 57.8855 13.7712 57.4927C14.7197 57.0999 15.7633 56.9971 16.7702 57.1975C17.7771 57.3978 18.7019 57.8922 19.4278 58.6182L19.4864 58.6768L21.8565 56.3076L21.7979 56.249C20.6034 55.0546 19.0815 54.2412 17.4248 53.9116C15.768 53.5821 14.0507 53.7513 12.49 54.3977C10.9294 55.0442 9.5955 56.1389 8.65701 57.5435C7.71853 58.948 7.21762 60.5994 7.21762 62.2886C7.21762 63.9778 7.71853 65.6291 8.65701 67.0337C9.5955 68.4383 10.9294 69.533 12.49 70.1794C14.0507 70.8259 15.768 70.9951 17.4248 70.6655C19.0815 70.336 20.6034 69.5226 21.7979 68.3282L21.8565 68.2696L19.4874 65.8994L19.4278 65.958Z" fill="white" />
  <path d="M81.037 79.9404C77.1503 79.9404 75.0546 83.1406 75.0546 85.751C75.0546 89.1162 77.9179 91.7617 81.6083 91.7617C83.4697 91.7617 84.5156 91.3711 85.7617 90.4756L83.9843 88.2021C83.1921 88.7065 82.2711 88.9713 81.332 88.9648C80.7562 88.964 80.1895 88.821 79.6823 88.5484C79.1751 88.2758 78.7431 87.8821 78.4247 87.4023H86.8163V86.8965C86.8163 80.8223 82.8984 79.9404 81.037 79.9404ZM83.7031 84.9609H78.2343C78.2343 84.5703 78.8837 82.6748 81.1367 82.6748C83.0615 82.6748 83.7031 84.4727 83.7031 84.9609Z" fill="white" />
  <path d="M27.1582 79.9404C23.2725 79.9404 21.1904 83.1406 21.1904 85.751C21.1904 89.1162 24.0605 91.7617 27.75 91.7617C29.6113 91.7617 30.6611 91.3711 31.9072 90.4756L30.1269 88.2021C29.3365 88.7056 28.4176 88.9704 27.4805 88.9648C26.9047 88.964 26.338 88.821 25.8308 88.5484C25.3236 88.2758 24.8916 87.8821 24.5732 87.4023H32.9101V86.8965C32.9101 80.8223 29.0195 79.9404 27.1582 79.9404ZM29.8516 84.9609H24.3828C24.3828 84.5703 25.0322 82.6748 27.2861 82.6748C29.21 82.6748 29.8516 84.4727 29.8516 84.9609Z" fill="white" />
  <path d="M51.5625 59.2373C47.6768 59.2373 45.5909 62.4375 45.5909 65.0479C45.5909 68.4131 48.459 71.0586 52.1485 71.0586C54.0098 71.0586 55.0586 70.668 56.3047 69.7725L54.5244 67.499C53.7337 68.0019 52.815 68.2667 51.8779 68.2617C50.0176 68.2617 49.0977 66.8945 48.9707 66.6992H57.3242V66.1934C57.3242 60.1191 53.4248 59.2373 51.5625 59.2373ZM54.249 64.2578H48.7803C48.7803 63.8672 49.4297 61.9717 51.6826 61.9717C53.6074 61.9717 54.249 63.7695 54.249 64.2578Z" fill="white" />
  <path d="M20.6182 80.1475C20.6166 78.7311 20.0534 77.3732 19.0519 76.3716C18.0505 75.37 16.6927 74.8065 15.2764 74.8047H9.375V91.5039H12.6953V85.4805C12.6953 85.4805 15.3691 85.4746 15.4414 85.4727L18.2959 91.5039H21.9502L18.2334 84.5869C18.9663 84.1011 19.5676 83.4415 19.9837 82.6669C20.3998 81.8923 20.6178 81.0268 20.6182 80.1475V80.1475ZM15.2764 82.1289H12.6953V77.9297H15.2764C15.8332 77.9297 16.3673 78.1509 16.761 78.5446C17.1548 78.9384 17.376 79.4724 17.376 80.0293C17.376 80.5861 17.1548 81.1202 16.761 81.5139C16.3673 81.9077 15.8332 82.1289 15.2764 82.1289V82.1289Z" fill="white" />
  <path d="M72.4678 80.8789C71.734 80.3487 70.8571 80.0525 69.9521 80.0293C67.9121 80.0293 66.9541 81.2178 66.7578 81.415C66.7578 81.415 66.7578 81.4209 66.7578 81.4248C66.583 81.2353 65.4727 80.0322 63.6279 80.0322C61.8701 80.0322 61.1338 80.9238 60.6455 81.5479V80.1758H57.4219V91.6016H60.6445V84.4375C60.6445 83.4756 61.833 82.6953 62.7666 82.6953C63.8633 82.6953 64.1602 83.4766 64.1602 84.4375V91.6016H67.5781V84.4375C67.5781 83.3848 68.8174 82.6953 69.7168 82.6953C70.9111 82.6953 71.1914 83.4766 71.1914 84.4375V91.6016H74.2188V84.0078C74.2188 82.7275 73.4727 81.6006 72.4678 80.8789Z" fill="white" />
  <path d="M31.1524 59.5703V60.6582L30.9688 60.583C30.2464 60.0572 29.4099 59.7095 28.5277 59.5684C27.6454 59.4272 26.7423 59.4966 25.8919 59.7708C25.0415 60.045 24.268 60.5163 23.6344 61.1463C23.0007 61.7763 22.525 62.5471 22.2458 63.3958C21.9667 64.2446 21.8921 65.1473 22.0282 66.0304C22.1642 66.9135 22.507 67.7519 23.0287 68.4773C23.5503 69.2028 24.236 69.7946 25.0299 70.2047C25.8237 70.6147 26.7032 70.8314 27.5967 70.8369C28.8079 70.8391 29.9894 70.4614 30.9746 69.7568L31.1524 69.6817V70.8008H33.9844V59.5703H31.1524ZM27.6963 68.0303C27.1254 68.0303 26.5672 67.861 26.0925 67.5438C25.6178 67.2266 25.2478 66.7757 25.0293 66.2483C24.8108 65.7208 24.7537 65.1404 24.8651 64.5804C24.9764 64.0204 25.2514 63.5061 25.6551 63.1023C26.0588 62.6986 26.5732 62.4237 27.1331 62.3123C27.6931 62.2009 28.2735 62.2581 28.801 62.4766C29.3285 62.6951 29.7793 63.0651 30.0965 63.5398C30.4137 64.0145 30.583 64.5726 30.583 65.1436C30.5831 65.5227 30.5086 65.8981 30.3635 66.2484C30.2185 66.5987 30.0059 66.917 29.7378 67.1851C29.4697 67.4532 29.1514 67.6658 28.8012 67.8108C28.4509 67.9558 28.0754 68.0304 27.6963 68.0303Z" fill="white" />
</svg>