<svg width="255" height="70" viewBox="0 0 255 70" fill="none" xmlns="http://www.w3.org/2000/svg">
  <path d="M176.37 41.9307C176.37 44.1573 174.094 45.2538 172.491 45.2538C170.648 45.2538 168.642 44.1121 168.642 41.9307V30.3486H163.247V41.4305C163.247 43.9312 164.184 46.0456 166.14 47.7181C167.862 49.1893 170.139 50.0001 172.642 50.0001C175.144 50.0001 177.369 49.1893 179.091 47.7181C181.048 46.0456 181.911 43.9269 181.911 41.4305V30.3486H176.37V41.9307Z" fill="#13AB67" />
  <path d="M158.061 38.5156C156.775 37.9819 155.113 37.5357 152.891 37.0968C150.254 36.5763 149.763 36.2219 149.779 35.5089C149.788 35.1473 150.174 34.7317 150.74 34.4619C151.367 34.1616 152.216 34.0085 153.13 34.0245C155.081 34.0682 156.503 34.7273 157.87 35.6285C157.911 35.6562 161.043 31.8883 161.043 31.8883C159.358 30.6503 156.731 29.4474 153.805 29.3817C150.932 29.3161 149.076 29.7448 147.557 30.5774C145.727 31.5821 144.517 33.0432 144.1 34.599C143.763 35.8603 144.13 37.7501 145.33 38.7256C146.966 40.0569 148.433 40.6605 152.463 41.2409C155.475 41.6783 155.913 42.5649 155.893 43.4398C155.865 44.6909 154.054 45.3033 152.462 45.1764C150.444 44.9933 148.566 44.063 147.198 42.5678L143.322 45.7757C144.947 47.5692 147.059 48.8497 149.4 49.4605C150.503 49.7465 151.636 49.904 152.776 49.93C153.844 49.9584 154.912 49.858 155.957 49.6311C158.936 48.9676 160.997 47.3082 161.609 45.0773C162.033 43.5346 161.812 41.8577 160.982 40.6605C160.329 39.7157 159.447 39.0901 158.061 38.5156Z" fill="#13AB67" />
  <path d="M81.3075 33.4019L77.9187 29.2447L69.3419 35.7728V21.1622H63.8009V49.5961H69.3419V41.9364L77.7335 49.3613L81.6603 45.6941L73.8869 38.9224L81.3075 33.4019Z" fill="#13AB67" />
  <path d="M35.9458 40.9449C34.7008 42.1898 33.1146 43.0376 31.3878 43.381C29.661 43.7245 27.8711 43.5482 26.2445 42.8744C24.6179 42.2006 23.2276 41.0596 22.2495 39.5957C21.2713 38.1318 20.7492 36.4107 20.7492 34.65C20.7492 32.8894 21.2713 31.1683 22.2495 29.7044C23.2276 28.2405 24.6179 27.0995 26.2445 26.4257C27.8711 25.7519 29.661 25.5756 31.3878 25.919C33.1146 26.2625 34.7008 27.1103 35.9458 28.3552L36.0464 28.4558L40.1102 24.392L40.0096 24.2913C37.9608 22.2424 35.3504 20.847 32.5086 20.2816C29.6667 19.7162 26.721 20.0063 24.044 21.1151C21.367 22.2238 19.0789 24.1016 17.4691 26.5108C15.8592 28.92 15 31.7525 15 34.65C15 37.5476 15.8592 40.3801 17.4691 42.7893C19.0789 45.1985 21.367 47.0762 24.044 48.185C26.721 49.2938 29.6667 49.5839 32.5086 49.0185C35.3504 48.4531 37.9608 47.0577 40.0096 45.0087L40.1102 44.9081L36.0464 40.8443L35.9458 40.9449Z" fill="#13AB67" />
  <path d="M224.986 29.4182C218.322 29.4182 214.828 34.9067 214.828 39.3832C214.828 45.156 219.786 49.6923 226.119 49.6923C229.311 49.6923 231.131 49.0128 233.264 47.4876L230.224 43.5885C229.048 44.3176 227.599 45.0073 225.69 45.0073C222.498 45.0073 220.925 43.0344 220.709 42.4512H234.696V41.3473C234.696 30.9303 228.179 29.4182 224.986 29.4182ZM229.761 38.0767H220.38C220.38 36.9102 221.492 34.1557 225.358 34.1557C228.662 34.1557 229.761 36.9102 229.761 38.0767Z" fill="#13AB67" />
  <path d="M133.115 29.4182C126.452 29.4182 122.881 34.9067 122.881 39.3832C122.881 45.156 127.803 49.6923 134.132 49.6923C137.325 49.6923 139.125 49.0128 141.264 47.4876L138.202 43.5885C137.026 44.3176 135.577 45.0073 133.664 45.0073C130.47 45.0073 128.894 43.0344 128.677 42.4512H142.967V41.3473C142.978 30.9303 136.307 29.4182 133.115 29.4182ZM137.736 38.0767H128.355C128.355 36.9102 129.467 34.1557 133.333 34.1557C136.637 34.1557 137.736 36.9102 137.736 38.0767V38.0767Z" fill="#13AB67" />
  <path d="M91.9094 29.4182C85.2457 29.4182 81.7024 34.9067 81.7024 39.3832C81.7024 45.156 86.6412 49.6923 92.971 49.6923C96.1629 49.6923 97.971 49.0128 100.109 47.4876L97.0713 43.5885C95.896 44.3176 94.4466 45.0073 92.535 45.0073C89.3431 45.0073 87.7668 43.0344 87.5496 42.4512H101.713V41.3473C101.713 30.9303 95.1086 29.4182 91.9094 29.4182ZM96.5901 38.0767H87.2084C87.2084 36.9102 88.3209 34.1557 92.1865 34.1557C95.4907 34.1557 96.5901 36.9102 96.5901 38.0767Z" fill="#13AB67" />
  <path d="M122.239 30.0496C122.239 24.9971 118.13 21.1622 113.079 21.1622H102.879V49.5961H108.274V38.9224C108.274 38.9224 113.047 39.0858 113.171 39.0814L118.252 49.599H124.522L118.149 37.702C119.407 36.8609 120.439 35.7226 121.152 34.3878C121.865 33.0531 122.239 31.563 122.239 30.0496V30.0496ZM113.074 33.7023H108.274V25.9741H113.074C115.081 25.9741 116.72 27.8303 116.72 29.8382C116.72 31.846 115.081 33.7023 113.074 33.7023Z" fill="#13AB67" />
  <path d="M210.377 31.0265C208.865 29.9402 207.237 29.5684 206.119 29.5684C202.619 29.5684 201.015 31.6098 200.67 31.9437C200.67 31.9437 200.682 31.9539 200.683 31.9597C200.383 31.636 198.419 29.5713 195.254 29.5713C192.234 29.5713 190.66 31.1009 190.076 32.1726V30.3485H184.681V49.5961H190.076V37.1303C190.076 35.4797 192.163 34.1426 193.763 34.1426C195.644 34.1426 196.201 35.4797 196.201 37.1303V49.5961H201.742V37.1303C201.742 35.3237 204.05 34.1426 205.593 34.1426C207.634 34.1426 208.303 35.4797 208.303 37.1303V49.5961H213.261V36.394C213.261 34.198 212.099 32.2659 210.377 31.0265Z" fill="#13AB67" />
  <path d="M56.0725 30.3485V31.8547L55.8581 31.7264C54.2123 30.5206 52.2247 29.8713 50.1844 29.8731C48.6496 29.8681 47.1354 30.2266 45.7658 30.9194C44.3962 31.6122 43.2102 32.6195 42.3048 33.8588C41.3994 35.0982 40.8005 36.5344 40.557 38.0498C40.3135 39.5652 40.4324 41.1167 40.9039 42.5773C41.3754 44.0379 42.1862 45.3661 43.2698 46.4531C44.3534 47.5401 45.6791 48.3549 47.1382 48.8309C48.5974 49.307 50.1485 49.4306 51.6647 49.1918C53.1808 48.953 54.6189 48.3585 55.861 47.4569L56.0725 47.3286V49.596H61.0302V30.3485H56.0725ZM50.3448 44.4925C49.3637 44.494 48.4041 44.2042 47.5877 43.66C46.7713 43.1158 46.1348 42.3416 45.7586 41.4354C45.3825 40.5292 45.2837 39.5318 45.4747 38.5694C45.6658 37.607 46.1381 36.723 46.8319 36.0292C47.5257 35.3354 48.4098 34.8631 49.3721 34.672C50.3345 34.4809 51.332 34.5797 52.2382 34.9559C53.1444 35.332 53.9186 35.9686 54.4628 36.785C55.007 37.6014 55.2967 38.5609 55.2953 39.5421C55.2949 40.8542 54.7744 42.1126 53.8478 43.0416C52.9213 43.9707 51.6642 44.4945 50.3521 44.4983L50.3448 44.4925Z" fill="#13AB67" />
</svg>